<svg xmlns="http://www.w3.org/2000/svg" version="1.0" width="143.000000pt" height="116.000000pt" viewBox="0 0 143.000000 116.000000" preserveAspectRatio="xMidYMid meet">

<g transform="translate(0.000000,116.000000) scale(0.100000,-0.100000)" fill="#ff6b66" stroke="none">
<path d="M285 1133 c-98 -14 -223 -81 -252 -136 -11 -22 -17 -57 -17 -112 0 -69 4 -90 33 -154 28 -63 31 -78 21 -94 -7 -11 -23 -49 -36 -85 -21 -54 -24 -74 -18 -126 13 -113 86 -236 165 -277 48 -24 114 -26 105 -3 -3 9 -6 24 -6 35 0 11 -8 22 -17 25 -92 29 -119 57 -147 153 -25 85 -21 132 18 209 43 84 83 127 142 153 53 24 82 26 190 12 81 -10 115 -25 167 -72 31 -29 77 -116 77 -148 0 -11 3 -35 6 -52 6 -30 9 -32 43 -29 l36 3 -3 46 c-1 25 -12 70 -23 100 -33 85 -33 86 -6 136 13 27 28 64 31 83 4 19 12 45 18 57 25 50 -63 200 -135 231 -85 38 -284 61 -392 45z m309 -136 c69 -26 106 -65 106 -111 0 -27 -25 -122 -36 -135 -2 -2 -21 8 -41 22 -67 46 -124 65 -218 72 l-90 6 -69 -40 c-37 -23 -70 -41 -72 -41 -8 0 -54 89 -54 105 0 10 11 37 25 61 26 44 61 63 150 83 68 14 233 2 299 -22z" fill="#ff6b66"/>
<path d="M390 583 c-61 -12 -82 -53 -90 -173 -14 -194 13 -345 68 -387 24 -19 231 -18 259 2 23 16 53 93 53 137 0 37 13 39 189 36 l144 -3 14 -65 c7 -36 21 -76 31 -90 18 -24 24 -25 140 -28 l120 -3 22 31 c32 46 54 198 46 327 -7 108 -18 151 -48 195 l-19 28 -122 -3 -122 -2 -27 -54 c-16 -30 -28 -69 -28 -87 0 -41 -16 -45 -192 -37 l-136 6 -12 46 c-13 57 -40 109 -59 116 -20 8 -201 14 -231 8z m133 -62 c4 -4 2 -50 -4 -102 -11 -90 -3 -250 17 -331 l6 -28 -61 0 c-62 0 -62 0 -79 38 -13 29 -17 68 -17 187 0 226 13 263 89 250 23 -3 45 -10 49 -14z m775 -25 c12 -29 13 -43 4 -57 -8 -13 -8 -40 3 -106 15 -90 13 -155 -8 -231 l-11 -42 -54 0 -53 0 6 153 c5 113 3 172 -8 232 -17 93 -15 96 57 93 46 -3 49 -5 64 -42z m-202 -182 c-3 -9 -6 -22 -6 -30 0 -12 -39 -14 -240 -14 l-240 0 0 24 c0 13 6 27 13 29 6 3 117 6 246 6 209 1 233 -1 227 -15z" fill="#ff6b66"/>
</g>
</svg>