<?xml version="1.0" standalone="no"?>
<!DOCTYPE svg PUBLIC "-//W3C//DTD SVG 20010904//EN"
 "http://www.w3.org/TR/2001/REC-SVG-20010904/DTD/svg10.dtd">
<svg version="1.0" xmlns="http://www.w3.org/2000/svg"
 width="547.000000pt" height="140.000000pt" viewBox="0 0 547.000000 140.000000"
 preserveAspectRatio="xMidYMid meet">

<g transform="translate(0.000000,140.000000) scale(0.100000,-0.100000)"
fill="#000000" stroke="none">
<path d="M2130 1380 c-30 -4 -85 -21 -123 -39 -37 -17 -71 -31 -75 -31 -14 0
-68 -63 -96 -111 -21 -37 -26 -59 -26 -112 0 -36 4 -76 9 -89 5 -13 14 -41 20
-64 6 -22 20 -51 31 -64 24 -27 25 -48 5 -76 -26 -37 -55 -165 -55 -241 0 -64
5 -83 40 -159 26 -57 54 -100 80 -124 40 -37 119 -70 167 -70 24 0 25 2 19 42
-8 49 -23 71 -43 64 -18 -7 -71 20 -95 48 -10 11 -30 44 -44 71 -22 43 -26 64
-27 145 -1 88 1 99 30 155 85 163 244 236 415 191 85 -23 100 -31 159 -87 70
-68 109 -151 109 -236 0 -32 1 -33 46 -33 l47 0 -5 69 c-4 50 -14 86 -37 131
-17 35 -31 67 -31 72 0 5 11 25 24 46 45 72 69 157 62 218 -12 102 -63 172
-173 236 -46 27 -77 37 -149 46 -99 13 -197 14 -284 2z m263 -124 c21 -3 66
-16 100 -31 72 -30 117 -83 117 -136 0 -46 -31 -150 -46 -156 -7 -3 -39 11
-71 31 -63 38 -192 76 -260 76 -45 0 -147 -40 -202 -79 -45 -33 -64 -27 -79
21 -40 126 -22 184 70 233 88 46 197 58 371 41z"/>
<path d="M3882 1169 c-76 -38 -76 -39 -73 -414 1 -201 6 -344 13 -365 39 -129
238 -148 298 -29 19 36 20 56 18 266 l-3 228 -90 0 -90 0 0 -55 c0 -55 0 -55
33 -58 l32 -3 0 -163 c0 -170 -4 -186 -45 -186 -43 0 -45 11 -45 284 0 359 4
383 59 369 15 -4 21 -13 21 -32 0 -40 20 -59 65 -62 64 -3 65 -3 65 45 0 56
-14 93 -48 129 -59 62 -142 80 -210 46z"/>
<path d="M327 1163 c-4 -3 -7 -172 -7 -375 l0 -368 -25 -10 c-30 -11 -70 1
-79 25 -3 9 -6 33 -6 53 0 55 -10 64 -66 60 l-49 -3 -3 -57 c-5 -87 11 -131
62 -173 37 -30 51 -35 93 -35 82 0 138 33 174 103 19 36 20 59 19 404 0 201
-3 369 -6 374 -6 10 -97 12 -107 2z"/>
<path d="M721 1160 c-45 -20 -82 -52 -96 -87 -12 -29 -15 -95 -15 -353 0 -347
1 -354 60 -404 77 -64 208 -36 255 55 12 23 15 87 15 349 0 298 -1 323 -19
358 -11 20 -35 47 -53 59 -39 26 -112 37 -147 23z m89 -139 c6 -12 10 -129 10
-309 0 -244 -2 -291 -15 -302 -22 -18 -64 -4 -71 24 -3 13 -4 151 -2 305 2
237 5 283 18 291 24 15 48 11 60 -9z"/>
<path d="M4596 1148 c-9 -12 -16 -36 -16 -53 -1 -16 -11 -70 -24 -120 -19 -71
-28 -90 -42 -90 -14 0 -21 16 -34 75 -9 41 -24 101 -34 133 l-17 58 -57 -3
-57 -3 4 -40 c2 -22 11 -62 22 -90 10 -27 34 -104 53 -170 19 -66 40 -133 47
-150 8 -19 15 -99 18 -215 l6 -185 53 -3 52 -3 0 148 c0 119 4 162 21 223 11
41 27 100 36 130 8 30 35 114 59 187 24 73 44 141 44 151 0 42 -108 58 -134
20z"/>
<path d="M1116 1144 c-8 -20 -8 -828 0 -848 5 -14 28 -16 145 -16 l139 0 0 54
c0 64 -3 66 -101 66 l-69 0 0 164 0 165 43 5 c23 3 60 7 82 8 l40 3 3 58 3 57
-73 0 c-40 0 -79 4 -85 8 -8 5 -12 35 -11 90 l1 82 83 0 84 0 0 60 0 60 -139
0 c-117 0 -140 -2 -145 -16z"/>
<path d="M4905 1147 c-3 -6 -4 -201 -3 -432 l3 -420 53 -3 52 -3 2 63 c2 35 3
124 4 198 1 74 2 182 4 240 l2 105 19 -115 c10 -63 27 -171 39 -240 11 -69 24
-152 28 -185 l7 -60 63 -3 62 -3 1 38 c0 21 6 74 14 118 8 44 26 156 40 249
14 93 27 171 29 174 7 6 16 -59 14 -98 -1 -19 -1 -135 0 -258 l2 -223 53 3 52
3 3 426 2 426 -61 7 c-34 3 -79 6 -100 6 -36 0 -39 -2 -47 -37 -5 -21 -20
-118 -33 -215 -26 -195 -42 -228 -54 -110 -4 37 -13 103 -21 147 -7 44 -14
101 -14 128 0 73 -20 87 -125 87 -59 0 -87 -4 -90 -13z"/>
<path d="M2198 673 c-30 -64 -32 -73 -36 -226 -5 -154 8 -287 30 -311 4 -6 8
-17 8 -26 0 -8 9 -23 20 -33 17 -14 42 -17 154 -17 150 0 177 10 191 72 4 18
13 57 19 87 l12 53 45 3 c104 6 317 7 326 2 6 -4 13 -29 15 -56 3 -27 17 -75
32 -105 l27 -56 128 0 c176 0 183 3 210 94 28 95 38 274 22 387 -17 111 -28
145 -57 174 -24 24 -30 25 -157 25 -73 0 -137 -4 -143 -8 -23 -14 -57 -98 -63
-152 l-6 -55 -190 0 -190 0 -3 30 c-8 71 -33 141 -57 163 -24 21 -35 22 -166
22 l-140 0 -31 -67z m222 -16 c0 -13 -6 -29 -12 -35 -10 -10 -13 -67 -13 -217
0 -150 3 -207 13 -217 6 -6 12 -25 12 -40 0 -27 -2 -28 -52 -28 -75 0 -98 8
-98 34 0 12 -6 28 -12 34 -9 9 -14 64 -17 179 -3 165 1 202 35 281 13 31 15
32 79 32 61 0 65 -1 65 -23z m873 -4 c50 -99 41 -477 -12 -520 -8 -7 -41 -13
-74 -13 l-59 0 6 32 c3 18 11 99 18 180 11 132 10 157 -5 238 -10 50 -15 95
-12 100 3 6 33 10 65 10 55 0 61 -2 73 -27z m-249 -219 c20 -5 26 -12 26 -35
l0 -28 -282 -3 c-156 -2 -289 -1 -295 1 -7 2 -13 16 -13 31 0 16 6 30 13 33
19 7 523 8 551 1z"/>
</g>
</svg>
